PathFileType	4	(X/Y/Z)	HSS_walk3.trc
DataRate	CameraRate	NumFrames	NumMarkers	Units	OrigDataRate	OrigDataStartFrame	OrigNumFrames
120.0	120.0	6	44	mm	120.0	125	992
Frame#	Time		R.Shoulder		Offset		L.Shoulder		R.Elbow		R.Wrist.Radial		R.Wrist		R.Hand		L.Elbow		L.Wrist.Radial		L.Wrist		L.Hand		R.Hip		V.Sacral		L.PSIS		L.Hip		R.Thigh.Upper		R.Thigh.Front		R.Thigh.Rear		X.Shell.Lower.Thigh.Right		R.Knee.Lateral		R.Shank.Upper		R.Shank.Front		R.Shank.Rear		X.Shell.Lower.Shank.Right		R.Ankle.Lateral		R.Heel		R.Toe		L.Thigh.Upper		L.Thigh.Front		L.Thigh.Rear		X.Shell.Lower.Thigh.Left		L.Knee.Lateral		L.Shank.Upper		L.Shank.Front		L.Shank.Rear		X.Shell.Lower.Shank.Left		L.Ankle.Lateral		L.Heel		L.Toe		R.Troc		L.Troc		R.PSIS		L.ASIS		R.ASIS
			X1	Y1	Z1	X2	Y2	Z2	X3	Y3	Z3	X4	Y4	Z4	X5	Y5	Z5	X6	Y6	Z6	X7	Y7	Z7	X8	Y8	Z8	X9	Y9	Z9	X10	Y10	Z10	X11	Y11	Z11	X12	Y12	Z12	X13	Y13	Z13	X14	Y14	Z14	X15	Y15	Z15	X16	Y16	Z16	X17	Y17	Z17	X18	Y18	Z18	X19	Y19	Z19	X20	Y20	Z20	X21	Y21	Z21	X22	Y22	Z22	X23	Y23	Z23	X24	Y24	Z24	X25	Y25	Z25	X26	Y26	Z26	X27	Y27	Z27	X28	Y28	Z28	X29	Y29	Z29	X30	Y30	Z30	X31	Y31	Z31	X32	Y32	Z32	X33	Y33	Z33	X34	Y34	Z34	X35	Y35	Z35	X36	Y36	Z36	X37	Y37	Z37	X38	Y38	Z38	X39	Y39	Z39	X40	Y40	Z40	X41	Y41	Z41	X42	Y42	Z42	X43	Y43	Z43	X44	Y44	Z44

125	1.03333	-1841.12708	1476.40991	-25.44627	-1946.05164	1376.85413	-313.80573	-1836.84094	1489.47351	-399.49283	-1841.29810	1109.38684	14.17578	-1720.32629	893.27386	66.20895	-1685.98706	904.10126	1.83635	-1666.51599	825.11603	57.29348	-1830.16211	1124.95105	-452.38315	-1678.51526	920.54718	-422.48230	-1702.69751	922.25977	-490.24948	-1652.55713	852.45453	-472.58243	-1779.36414	1037.70874	-63.02298	-1895.73926	1021.05579	-214.99892	-1893.11694	1026.88684	-255.79285	-1772.43518	1034.94080	-359.72708	-1743.16772	693.19434	-28.33615	-1711.50720	655.69220	-45.68323	-1767.23523	655.53925	-19.93771	-1741.26477	622.17261	-38.75686	-1807.96838	516.39789	-51.26695	-1827.00366	369.41324	-4.13733	-1802.78101	324.59024	-28.83289	-1860.90662	334.53549	-14.58538	-1840.62842	293.32291	-24.74233	-1862.60034	70.49014	-73.45295	-1906.90564	32.86071	-121.18682	-1708.69873	31.92440	-73.88977	-1736.48035	689.04248	-374.69620	-1720.23901	639.38062	-350.21750	-1768.16028	654.50433	-388.07996	-1745.38818	618.76196	-374.18860	-1820.75549	506.35785	-352.81030	-1860.52979	305.51080	-389.69562	-1832.63770	282.16992	-369.01498	-1891.94702	267.55127	-374.96503	-1869.88049	236.25882	-375.27975	-1861.56348	72.11651	-323.08643	-1917.09985	35.32522	-276.49118	-1717.47314	31.84060	-312.42853	-1766.62512	880.10101	-25.79005	-1767.85583	889.31830	-397.48364	-1897.35046	1026.02832	-169.64069	-1708.37024	997.11847	-319.18161	-1717.65930	1000.66125	-94.09696
126	1.04167	-1840.94397	1476.36902	-25.54502	-1945.82971	1376.85059	-313.81873	-1836.55115	1489.44055	-399.49442	-1841.09973	1109.36060	14.11795	-1720.15723	893.24847	66.15594	-1685.81116	904.05072	1.73546	-1666.38464	825.04437	57.17821	-1830.00378	1124.95483	-452.40930	-1678.27917	920.45355	-422.59210	-1702.55896	922.20227	-490.23566	-1652.41931	852.41266	-472.64771	-1779.35791	1037.62903	-62.98429	-1895.65771	1021.06305	-214.99719	-1892.97791	1026.86963	-255.79929	-1772.34521	1034.93054	-359.73892	-1743.11084	693.21698	-28.40302	-1711.45020	655.70251	-45.68864	-1767.16394	655.51709	-19.96166	-1741.16345	622.15155	-38.73438	-1807.95447	516.56744	-51.41580	-1827.03540	369.46997	-4.13393	-1802.77502	324.58990	-28.83392	-1860.93433	334.57169	-14.61062	-1840.64551	293.36514	-24.72144	-1862.59644	70.49549	-73.43741	-1906.92078	32.87666	-121.17009	-1708.69128	31.89641	-73.93159	-1736.35657	688.99951	-374.72131	-1720.15869	639.36584	-350.27591	-1768.09607	654.50873	-388.13077	-1745.33826	618.75214	-374.21103	-1820.69910	506.38849	-352.84604	-1860.45679	305.47009	-389.68362	-1832.64136	282.17587	-368.97522	-1891.95044	267.57379	-374.96921	-1869.87866	236.27403	-375.24731	-1861.58691	72.15679	-323.06192	-1917.08545	35.35007	-276.48535	-1717.45984	31.81801	-312.51398	-1766.41406	880.07507	-25.89456	-1767.78076	889.28333	-397.54242	-1897.23499	1026.02185	-169.62105	-1708.24866	997.10150	-319.22534	-1717.54431	1000.68683	-94.06385
127	1.05000	-1840.78394	1476.31628	-25.59169	-1945.61255	1376.89587	-313.83023	-1836.27783	1489.41699	-399.51944	-1840.95593	1109.31995	14.05938	-1720.02246	893.24036	66.09185	-1685.58545	904.00897	1.64791	-1666.25073	825.01984	57.09139	-1829.86108	1124.94641	-452.42722	-1678.08313	920.41071	-422.63461	-1702.40686	922.16754	-490.28189	-1652.25696	852.34692	-472.71466	-1779.25769	1037.67273	-63.02297	-1895.54578	1021.08063	-215.01161	-1892.84863	1026.86426	-255.79424	-1772.30798	1034.85535	-359.78088	-1743.03748	693.21906	-28.40725	-1711.38477	655.68524	-45.71386	-1767.10266	655.48303	-20.04030	-1741.09521	622.15973	-38.76271	-1807.91113	516.56287	-51.44406	-1827.05005	369.49780	-4.16778	-1802.77441	324.61795	-28.86952	-1860.91394	334.57687	-14.67141	-1840.67871	293.41400	-24.71549	-1862.59973	70.51067	-73.43536	-1906.90649	32.88845	-121.17912	-1708.67188	31.90095	-73.89171	-1736.34546	689.02484	-374.80161	-1720.10339	639.31775	-350.25806	-1768.02161	654.52490	-388.22699	-1745.25342	618.73993	-374.23981	-1820.67163	506.38898	-352.82745	-1860.44312	305.51300	-389.71179	-1832.63367	282.21130	-369.04956	-1891.92773	267.58005	-374.97067	-1869.88733	236.27570	-375.25616	-1861.57776	72.15050	-323.08765	-1917.09021	35.38064	-276.43677	-1717.47156	31.85308	-312.49100	-1766.27856	880.08258	-25.92869	-1767.81543	889.28156	-396.86465	-1897.10278	1026.02930	-169.59392	-1708.15369	997.13336	-319.16818	-1717.47314	1000.62231	-94.12225
128	1.05833	-1840.30652	1476.24243	-25.98800	-1945.43311	1376.90112	-313.81989	-1835.93140	1489.42395	-399.50818	-1840.85449	1109.28406	14.02238	-1719.84680	893.19403	66.05536	-1685.35498	903.93256	1.54465	-1666.05615	824.98834	56.97870	-1829.94617	1125.29541	-452.78568	-1677.81458	920.40863	-422.63293	-1702.26440	922.12256	-490.29526	-1652.11584	852.37628	-472.74176	-1779.25488	1037.67236	-62.99530	-1895.45447	1021.09766	-215.00990	-1892.74524	1026.86963	-255.79214	-1772.11633	1034.90979	-359.75827	-1742.91431	693.19623	-28.42046	-1711.29980	655.64630	-45.74671	-1766.99988	655.48157	-20.08446	-1741.02917	622.13617	-38.76717	-1807.86548	516.61139	-51.46299	-1827.01416	369.50027	-4.18997	-1802.77686	324.63409	-28.89921	-1860.91077	334.59137	-14.62560	-1840.63672	293.41132	-24.74732	-1862.61304	70.52637	-73.44241	-1906.91235	32.90474	-121.19981	-1708.68103	31.91817	-73.89076	-1736.27136	689.05725	-374.83206	-1720.06470	639.36377	-350.32190	-1767.99915	654.51874	-388.17422	-1745.20874	618.77563	-374.33334	-1820.63049	506.37970	-352.81747	-1860.42261	305.51782	-389.69794	-1832.62036	282.19513	-368.98447	-1891.92297	267.61871	-374.96140	-1869.87146	236.30032	-375.26474	-1861.56604	72.19392	-323.06012	-1917.10376	35.40502	-276.39410	-1717.43811	31.80148	-312.51608	-1766.19373	880.07056	-25.90421	-1767.77637	889.27264	-396.81909	-1896.98645	1026.04004	-169.58052	-1708.05542	997.12579	-319.25797	-1717.07788	1000.69983	-94.08147
129	1.06667	-1840.44958	1476.30383	-25.63302	-1945.28760	1376.90662	-313.80673	-1835.78125	1489.35400	-399.52176	-1840.73975	1109.24158	13.98090	-1719.69885	893.15039	65.98146	-1685.16760	903.87799	1.44889	-1665.88660	824.94305	56.85860	-1829.83765	1125.29932	-452.82095	-1677.80347	920.37366	-422.68799	-1702.12048	922.11713	-490.30206	-1652.00513	852.32056	-472.72073	-1778.97620	1037.68176	-63.03051	-1895.37231	1021.09277	-215.01184	-1892.64355	1026.86853	-255.77541	-1772.07422	1034.91846	-359.77103	-1742.77844	693.20221	-28.47314	-1711.22412	655.62726	-45.70101	-1766.95667	655.47015	-20.02366	-1740.96240	622.14258	-38.83267	-1807.78894	516.54279	-51.56550	-1826.98889	369.49274	-4.20403	-1802.76355	324.63287	-28.82745	-1860.90540	334.61798	-14.63750	-1840.70813	293.47870	-24.66582	-1862.62122	70.53375	-73.44180	-1906.90283	32.89546	-121.17970	-1708.68567	31.90211	-73.93250	-1736.23132	689.01196	-374.82819	-1720.02478	639.36554	-350.33392	-1767.97278	654.50348	-388.13724	-1745.15393	618.76678	-374.29257	-1820.58496	506.36871	-352.79074	-1860.35327	305.52896	-389.65298	-1832.58301	282.18613	-368.96280	-1891.88293	267.61533	-374.94083	-1869.87756	236.30121	-375.24390	-1861.57202	72.23056	-323.05789	-1917.11377	35.42705	-276.36319	-1717.43103	31.79257	-312.47867	-1766.11792	880.07697	-25.89194	-1767.70557	889.25256	-396.85922	-1896.86316	1026.06018	-169.53712	-1707.96228	997.13037	-319.29959	-1717.00964	1000.66461	-94.11461
130	1.07500	-1839.89697	1476.21265	-26.05762	-1945.16272	1376.92017	-313.79803	-1835.46729	1489.34131	-399.59134	-1840.58020	1109.20679	13.89385	-1719.56311	893.13831	65.94490	-1685.00293	903.80591	1.39027	-1665.68164	824.92767	56.78035	-1829.70703	1125.29712	-452.80167	-1677.71875	920.41748	-422.67276	-1702.01062	922.07666	-490.29706	-1651.89893	852.26190	-472.62567	-1778.76575	1037.70508	-63.04849	-1895.26257	1021.10553	-214.95541	-1892.56213	1026.87488	-255.74841	-1772.02881	1034.93457	-359.81351	-1742.64258	693.16290	-28.44879	-1711.13989	655.59064	-45.70339	-1766.86963	655.47766	-20.11393	-1740.89294	622.11774	-38.86622	-1807.74768	516.56055	-51.51118	-1826.96069	369.50009	-4.18259	-1802.75928	324.64212	-28.86711	-1860.88721	334.63358	-14.58409	-1840.66040	293.45081	-24.73212	-1862.60217	70.51502	-73.48852	-1906.91406	32.92666	-121.16617	-1708.68103	31.88533	-73.90620	-1736.18811	689.02026	-374.83505	-1719.99207	639.34290	-350.35242	-1767.94958	654.48798	-388.14935	-1745.10303	618.74335	-374.27603	-1820.55505	506.35898	-352.77856	-1860.39465	305.55551	-389.62857	-1832.59863	282.20905	-368.99673	-1891.86682	267.63055	-374.90143	-1869.85144	236.31630	-375.22925	-1861.58093	72.24028	-323.02252	-1917.08337	35.42339	-276.36185	-1717.43567	31.81083	-312.49802	-1766.05762	880.05811	-25.85119	-1767.67249	889.26013	-396.89371	-1896.76514	1026.06030	-169.52728	-1707.88440	997.13654	-319.29187	-1716.82202	1000.67072	-94.14111
